<?xml version="1.0" encoding="UTF-8" standalone="no"?>
<!-- Created with Inkscape (http://www.inkscape.org/) -->

<svg
   width="200mm"
   height="200mm"
   viewBox="0 0 200 200"
   version="1.1"
   id="svg5"
   inkscape:version="1.1.1 (3bf5ae0d25, 2021-09-20)"
   sodipodi:docname="Logo.svg"
   xmlns:inkscape="http://www.inkscape.org/namespaces/inkscape"
   xmlns:sodipodi="http://sodipodi.sourceforge.net/DTD/sodipodi-0.dtd"
   xmlns="http://www.w3.org/2000/svg"
   xmlns:svg="http://www.w3.org/2000/svg">
  <sodipodi:namedview
     id="namedview7"
     pagecolor="#505050"
     bordercolor="#eeeeee"
     borderopacity="1"
     inkscape:pageshadow="0"
     inkscape:pageopacity="0"
     inkscape:pagecheckerboard="0"
     inkscape:document-units="mm"
     showgrid="false"
     inkscape:snap-global="false"
     inkscape:zoom="0.64052329"
     inkscape:cx="369.22935"
     inkscape:cy="353.61712"
     inkscape:window-width="1280"
     inkscape:window-height="961"
     inkscape:window-x="-8"
     inkscape:window-y="-8"
     inkscape:window-maximized="1"
     inkscape:current-layer="layer1" />
  <defs
     id="defs2" />
  <g
     inkscape:label="Layer 1"
     inkscape:groupmode="layer"
     id="layer1">
    <g
       id="g12714"
       transform="matrix(3.6699118,0,0,3.6699118,-225.87933,-208.77605)">
      <path
         id="path1091"
         style="fill:#ffffff;fill-opacity:1;stroke:#ffffff;stroke-width:1.00157;stroke-linecap:butt;stroke-linejoin:miter;stroke-miterlimit:4;stroke-dasharray:none;stroke-opacity:1"
         d="m 358.88672,247.06445 c 0,0 -0.19499,3.12114 0.19531,10.3418 0.39031,7.22066 14.05078,16.19727 14.05078,16.19727 H 346.5918 c -3.58784,0 18.56836,3.36328 18.56836,3.36328 l 0.75195,2.80468 h 32.84375 l 1.30859,-2.26367 17.75782,-4.29297 -26.17383,-0.13867 c 5.73426,-4.16851 8.70117,-7.70117 8.70117,-7.70117 3.09683,2.11572 15.32582,3.15593 14.93555,-6.79688 -0.39032,-9.95279 -9.75782,-7.80664 -9.75782,-7.80664 v -3.70703 z m 46.99023,8.12891 c 1.83257,-0.0117 5.02023,0.39853 4.5293,3.46094 -0.68304,4.26073 -7.02539,2.62304 -7.02539,2.62304 l 1.26953,-6.00976 c 0,0 0.50947,-0.0696 1.22656,-0.0742 z"
         transform="scale(0.26458333)" />
      <path
         style="fill:#ffffff;fill-opacity:1;stroke:#ffffff;stroke-width:0.264583px;stroke-linecap:butt;stroke-linejoin:miter;stroke-opacity:1"
         d="m 101.92594,64.878388 c 0,-0.748694 0.0258,-1.161769 0.59379,-1.652293 0.56798,-0.490525 1.38462,-1.966849 0.1549,-2.581712 0,0 0.33564,1.419943 -0.59379,1.962101 -0.82058,0.478662 -0.9036,1.187586 -0.61961,1.652295 0.28399,0.464709 0.46471,0.619609 0.46471,0.619609 z"
         id="path5222"
         sodipodi:nodetypes="cssssc" />
      <path
         style="fill:#ffffff;fill-opacity:1;stroke:#ffffff;stroke-width:0.265;stroke-linecap:butt;stroke-linejoin:miter;stroke-miterlimit:4;stroke-dasharray:none;stroke-opacity:1"
         d="m 100.86744,64.568583 c 0,-0.748694 -1.063044,-1.990106 -0.10328,-2.891514 2.17003,-2.038077 1.35881,-3.825681 0.12909,-4.440544 0,0 1.3195,1.921849 -0.929415,3.175505 -1.880461,1.04826 -1.110135,2.633344 -0.826145,3.098053 0.28399,0.464709 1.72975,1.0585 1.72975,1.0585 z"
         id="path6321"
         sodipodi:nodetypes="cssssc" />
      <path
         id="path7488"
         style="fill:#ffffff;fill-opacity:1;stroke:none;stroke-width:0.297008;stroke-miterlimit:4;stroke-dasharray:none;stroke-opacity:1"
         d="m 86.428314,65.776863 c -0.230409,0.0061 -0.45476,0.04211 -0.669208,0.107487 -0.0644,0.01995 -0.12782,0.04252 -0.190169,0.0677 0.661141,0.705493 1.355426,1.266653 1.53787,1.714466 0.18244,0.447813 0.317679,2.193068 0.691607,3.593925 0.257591,0.96502 1.198219,2.030696 1.198219,2.030696 1.326314,-0.753623 1.806919,-2.658586 1.138433,-4.512387 -0.646144,-1.791861 -2.189361,-3.041623 -3.706752,-3.001883 z m 0.05343,2.153166 c -0.367329,-0.895562 -1.301412,-1.780064 -1.301412,-1.780064 -1.262065,0.790255 -1.700389,2.652112 -1.049549,4.458126 0.758804,2.103509 2.717983,3.399139 4.37596,2.89388 0.06956,-0.02125 0.137983,-0.04554 0.205155,-0.07286 -0.546394,-0.725818 -1.313947,-1.335916 -1.424011,-1.734902 -0.08153,-0.295529 -0.438814,-2.868613 -0.806143,-3.764177 z"
         sodipodi:nodetypes="ccczscsczccccsz" />
      <path
         id="path8723"
         style="fill:#ffffff;fill-opacity:1;stroke:none;stroke-width:0.230876;stroke-miterlimit:4;stroke-dasharray:none;stroke-opacity:1"
         d="m 80.184251,69.436072 c -0.952624,-0.0044 -1.825813,0.343519 -2.324404,0.982369 -0.110083,0.141131 -0.198734,0.293126 -0.265102,0.453718 -0.01974,0.04838 -0.03767,0.09757 -0.05323,0.147277 0.752924,-0.05089 1.434967,-0.192611 1.795756,-0.08268 0.360788,0.109929 1.482606,0.883788 2.51406,1.345655 0.710544,0.318169 1.81901,0.275952 1.81901,0.275952 0.199335,-1.164291 -0.714541,-2.385245 -2.165244,-2.892329 -0.438195,-0.153173 -0.887838,-0.227976 -1.32085,-0.22996 z m -2.126485,1.876888 c -0.339318,0.0044 -0.588592,0.03617 -0.588592,0.03617 -0.06301,0.495371 0.07174,0.996727 0.359666,1.445905 0.275683,-0.07867 0.56728,-0.126333 0.86713,-0.137459 1.363104,-0.05058 2.519352,0.662334 2.784326,1.701189 0.955964,-0.128842 1.756061,-0.629991 2.075842,-1.403533 0.02151,-0.05212 0.04071,-0.104994 0.05736,-0.158646 -0.708549,-0.02787 -1.456296,0.133572 -1.75183,0.0041 -0.218901,-0.09582 -1.950996,-1.141764 -2.673739,-1.360122 -0.361371,-0.109178 -0.790845,-0.132064 -1.130165,-0.127641 z" />
      <path
         id="path8725"
         style="fill:#ffffff;fill-opacity:1;stroke:none;stroke-width:0.205411;stroke-miterlimit:4;stroke-dasharray:none;stroke-opacity:1"
         d="m 75.788588,74.649673 c -0.04534,0.15332 -0.06976,0.30896 -0.07278,0.464271 -6.99e-4,0.04671 5.33e-4,0.09332 0.0037,0.13978 0.604633,-0.287202 1.121636,-0.626758 1.454624,-0.652532 0.332988,-0.02577 1.507421,0.253694 2.506934,0.302912 0.688543,0.03391 1.589434,-0.361614 1.589434,-0.361614 -0.210573,-1.034354 -1.357933,-1.753917 -2.717814,-1.704465 -1.314441,0.0478 -2.46521,0.802032 -2.764105,1.811649 z m 1.424638,0.419624 c -0.666457,0.05318 -1.447036,0.482657 -1.447036,0.482657 0.248376,0.999699 1.3765,1.682257 2.701236,1.634352 1.543116,-0.05629 2.813075,-1.075303 2.836542,-2.276029 9.74e-4,-0.05039 -3.4e-4,-0.100665 -0.0039,-0.150757 -0.593399,0.207187 -1.158212,0.584755 -1.443662,0.573065 -0.211413,-0.0086 -1.976734,-0.316463 -2.643192,-0.263286 z"
         sodipodi:nodetypes="ccczscsczccccsz" />
      <circle
         style="opacity:1;fill:#ffffff;fill-opacity:1;stroke:#ffffff;stroke-width:0.264999;stroke-miterlimit:4;stroke-dasharray:none;stroke-opacity:1"
         id="path11247"
         cx="87.984695"
         cy="90.308243"
         r="1.187587" />
      <path
         style="fill:#ffffff;fill-opacity:1;stroke:#ffffff;stroke-width:0.225733px;stroke-linecap:butt;stroke-linejoin:miter;stroke-opacity:1"
         d="M 88.088953,90.321255 79.883018,78.380905 88.72281,89.928926 Z"
         id="path11403"
         inkscape:transform-center-x="3.9776536"
         inkscape:transform-center-y="-5.9574895" />
      <path
         style="fill:#ffffff;fill-opacity:1;stroke:#ffffff;stroke-width:0.177364px;stroke-linecap:butt;stroke-linejoin:miter;stroke-opacity:1"
         d="m 88.174986,89.461228 7.234401,-8.675832 -6.780834,9.052508 z"
         id="path11587"
         inkscape:transform-center-x="-3.5616501"
         inkscape:transform-center-y="-4.2870909" />
      <g
         id="g11887"
         style="fill:#ffffff;fill-opacity:1">
        <path
           id="path11795"
           style="fill:#ffffff;fill-opacity:1;stroke:none;stroke-width:0.110869;stroke-miterlimit:4;stroke-dasharray:none;stroke-opacity:1"
           d="m 67.059484,90.020656 c -0.02579,0.08282 -0.04045,0.167327 -0.0437,0.252092 -8.53e-4,0.0255 -7.02e-4,0.05098 4.96e-4,0.07641 0.325307,-0.144591 0.60446,-0.319553 0.782218,-0.32687 0.177756,-0.0073 0.800786,0.16915 1.333014,0.216315 0.366639,0.03249 0.850998,-0.165245 0.850998,-0.165245 -0.101311,-0.569203 -0.705262,-0.985488 -1.430609,-0.986076 -0.701112,-5.69e-4 -1.322446,0.388013 -1.492424,0.933367 z m 0.75491,0.258095 c -0.355788,0.01552 -0.776378,0.234245 -0.776378,0.234245 0.121825,0.551043 0.715914,0.946726 1.422513,0.947446 0.823086,5.72e-4 1.510747,-0.530206 1.535938,-1.185525 0.001,-0.0275 8.53e-4,-0.05498 -4.87e-4,-0.08241 -0.318475,0.101116 -0.62351,0.295873 -0.775534,0.283693 -0.112595,-0.009 -1.050271,-0.212957 -1.406059,-0.19744 z"
           sodipodi:nodetypes="ccczscsczccccsz" />
        <path
           id="path11883"
           style="fill:#ffffff;fill-opacity:1;stroke:none;stroke-width:0.110869;stroke-miterlimit:4;stroke-dasharray:none;stroke-opacity:1"
           d="m 106.30149,90.020656 c -0.0258,0.08282 -0.0405,0.167327 -0.0437,0.252092 -8.6e-4,0.0255 -7.1e-4,0.05098 4.9e-4,0.07641 0.32531,-0.144591 0.60446,-0.319553 0.78222,-0.32687 0.17776,-0.0073 0.80079,0.16915 1.33301,0.216315 0.36664,0.03249 0.851,-0.165245 0.851,-0.165245 -0.10131,-0.569203 -0.70526,-0.985488 -1.43061,-0.986076 -0.70111,-5.69e-4 -1.32244,0.388013 -1.49242,0.933367 z m 0.75491,0.258095 c -0.35579,0.01552 -0.77638,0.234245 -0.77638,0.234245 0.12182,0.551043 0.71591,0.946726 1.42251,0.947446 0.82309,5.72e-4 1.51075,-0.530206 1.53594,-1.185525 10e-4,-0.0275 8.5e-4,-0.05498 -4.9e-4,-0.08241 -0.31847,0.101116 -0.62351,0.295873 -0.77553,0.283693 -0.1126,-0.009 -1.05027,-0.212957 -1.40606,-0.19744 z"
           sodipodi:nodetypes="ccczscsczccccsz" />
      </g>
      <g
         id="g11981"
         transform="rotate(30,88.127181,90.273862)"
         style="fill:#ffffff;fill-opacity:1">
        <path
           id="path11977"
           style="fill:#ffffff;fill-opacity:1;stroke:none;stroke-width:0.110869;stroke-miterlimit:4;stroke-dasharray:none;stroke-opacity:1"
           d="m 67.059484,90.020656 c -0.02579,0.08282 -0.04045,0.167327 -0.0437,0.252092 -8.53e-4,0.0255 -7.02e-4,0.05098 4.96e-4,0.07641 0.325307,-0.144591 0.60446,-0.319553 0.782218,-0.32687 0.177756,-0.0073 0.800786,0.16915 1.333014,0.216315 0.366639,0.03249 0.850998,-0.165245 0.850998,-0.165245 -0.101311,-0.569203 -0.705262,-0.985488 -1.430609,-0.986076 -0.701112,-5.69e-4 -1.322446,0.388013 -1.492424,0.933367 z m 0.75491,0.258095 c -0.355788,0.01552 -0.776378,0.234245 -0.776378,0.234245 0.121825,0.551043 0.715914,0.946726 1.422513,0.947446 0.823086,5.72e-4 1.510747,-0.530206 1.535938,-1.185525 0.001,-0.0275 8.53e-4,-0.05498 -4.87e-4,-0.08241 -0.318475,0.101116 -0.62351,0.295873 -0.775534,0.283693 -0.112595,-0.009 -1.050271,-0.212957 -1.406059,-0.19744 z"
           sodipodi:nodetypes="ccczscsczccccsz" />
        <path
           id="path11979"
           style="fill:#ffffff;fill-opacity:1;stroke:none;stroke-width:0.110869;stroke-miterlimit:4;stroke-dasharray:none;stroke-opacity:1"
           d="m 106.30149,90.020656 c -0.0258,0.08282 -0.0405,0.167327 -0.0437,0.252092 -8.6e-4,0.0255 -7.1e-4,0.05098 4.9e-4,0.07641 0.32531,-0.144591 0.60446,-0.319553 0.78222,-0.32687 0.17776,-0.0073 0.80079,0.16915 1.33301,0.216315 0.36664,0.03249 0.851,-0.165245 0.851,-0.165245 -0.10131,-0.569203 -0.70526,-0.985488 -1.43061,-0.986076 -0.70111,-5.69e-4 -1.32244,0.388013 -1.49242,0.933367 z m 0.75491,0.258095 c -0.35579,0.01552 -0.77638,0.234245 -0.77638,0.234245 0.12182,0.551043 0.71591,0.946726 1.42251,0.947446 0.82309,5.72e-4 1.51075,-0.530206 1.53594,-1.185525 10e-4,-0.0275 8.5e-4,-0.05498 -4.9e-4,-0.08241 -0.31847,0.101116 -0.62351,0.295873 -0.77553,0.283693 -0.1126,-0.009 -1.05027,-0.212957 -1.40606,-0.19744 z"
           sodipodi:nodetypes="ccczscsczccccsz" />
      </g>
      <path
         id="path11985"
         style="fill:#ffffff;fill-opacity:1;stroke:none;stroke-width:0.110869;stroke-miterlimit:4;stroke-dasharray:none;stroke-opacity:1"
         d="m 97.433647,105.88657 c -0.08462,0.0191 -0.16516,0.0486 -0.240168,0.0882 -0.02251,0.012 -0.04451,0.0249 -0.06593,0.0386 0.287874,0.20943 0.578971,0.3637 0.674187,0.51398 0.0952,0.1503 0.253907,0.77808 0.479171,1.26258 0.155183,0.33377 0.568606,0.65437 0.568606,0.65437 0.44229,-0.37234 0.500828,-1.10352 0.138662,-1.73199 -0.350062,-0.60746 -0.997249,-0.95126 -1.554529,-0.82579 z m 0.153938,0.78281 c -0.191336,-0.30036 -0.591052,-0.55524 -0.591052,-0.55524 -0.416307,0.38102 -0.461934,1.09336 -0.109258,1.70565 0.41105,0.71311 1.214547,1.04325 1.794665,0.7374 0.02432,-0.0129 0.04804,-0.0268 0.07112,-0.0416 -0.246804,-0.22525 -0.567988,-0.39204 -0.63345,-0.52979 -0.04851,-0.10201 -0.340709,-1.01604 -0.532042,-1.3164 z"
         sodipodi:nodetypes="ccczscsczccccsz" />
      <g
         id="g12075"
         transform="rotate(-30,88.127181,90.273862)"
         style="fill:#ffffff;fill-opacity:1">
        <path
           id="path12071"
           style="fill:#ffffff;fill-opacity:1;stroke:none;stroke-width:0.110869;stroke-miterlimit:4;stroke-dasharray:none;stroke-opacity:1"
           d="m 67.059484,90.020656 c -0.02579,0.08282 -0.04045,0.167327 -0.0437,0.252092 -8.53e-4,0.0255 -7.02e-4,0.05098 4.96e-4,0.07641 0.325307,-0.144591 0.60446,-0.319553 0.782218,-0.32687 0.177756,-0.0073 0.800786,0.16915 1.333014,0.216315 0.366639,0.03249 0.850998,-0.165245 0.850998,-0.165245 -0.101311,-0.569203 -0.705262,-0.985488 -1.430609,-0.986076 -0.701112,-5.69e-4 -1.322446,0.388013 -1.492424,0.933367 z m 0.75491,0.258095 c -0.355788,0.01552 -0.776378,0.234245 -0.776378,0.234245 0.121825,0.551043 0.715914,0.946726 1.422513,0.947446 0.823086,5.72e-4 1.510747,-0.530206 1.535938,-1.185525 0.001,-0.0275 8.53e-4,-0.05498 -4.87e-4,-0.08241 -0.318475,0.101116 -0.62351,0.295873 -0.775534,0.283693 -0.112595,-0.009 -1.050271,-0.212957 -1.406059,-0.19744 z"
           sodipodi:nodetypes="ccczscsczccccsz" />
        <path
           id="path12073"
           style="fill:#ffffff;fill-opacity:1;stroke:none;stroke-width:0.110869;stroke-miterlimit:4;stroke-dasharray:none;stroke-opacity:1"
           d="m 106.30149,90.020656 c -0.0258,0.08282 -0.0405,0.167327 -0.0437,0.252092 -8.6e-4,0.0255 -7.1e-4,0.05098 4.9e-4,0.07641 0.32531,-0.144591 0.60446,-0.319553 0.78222,-0.32687 0.17776,-0.0073 0.80079,0.16915 1.33301,0.216315 0.36664,0.03249 0.851,-0.165245 0.851,-0.165245 -0.10131,-0.569203 -0.70526,-0.985488 -1.43061,-0.986076 -0.70111,-5.69e-4 -1.32244,0.388013 -1.49242,0.933367 z m 0.75491,0.258095 c -0.35579,0.01552 -0.77638,0.234245 -0.77638,0.234245 0.12182,0.551043 0.71591,0.946726 1.42251,0.947446 0.82309,5.72e-4 1.51075,-0.530206 1.53594,-1.185525 10e-4,-0.0275 8.5e-4,-0.05498 -4.9e-4,-0.08241 -0.31847,0.101116 -0.62351,0.295873 -0.77553,0.283693 -0.1126,-0.009 -1.05027,-0.212957 -1.40606,-0.19744 z"
           sodipodi:nodetypes="ccczscsczccccsz" />
      </g>
      <path
         id="path12077"
         style="fill:#ffffff;fill-opacity:1;stroke:none;stroke-width:0.110869;stroke-miterlimit:4;stroke-dasharray:none;stroke-opacity:1"
         d="m 78.235154,108.87651 c 0.06175,0.0609 0.130111,0.11272 0.203934,0.15451 0.02227,0.0125 0.04497,0.024 0.06812,0.0346 0.0208,-0.35539 -0.0066,-0.6837 0.0685,-0.845 0.07508,-0.16129 0.51774,-0.63389 0.803865,-1.08513 0.197103,-0.31086 0.243667,-0.83195 0.243667,-0.83195 -0.552229,-0.17117 -1.199231,0.17443 -1.532586,0.81864 -0.322218,0.62268 -0.262065,1.35305 0.144491,1.75432 z m 0.575718,-0.55231 c -0.149468,0.32324 -0.14812,0.7973 -0.14812,0.7973 0.545507,0.14461 1.169678,-0.20168 1.494548,-0.82917 0.378189,-0.73105 0.222128,-1.5856 -0.348569,-1.90868 -0.02397,-0.0135 -0.04846,-0.026 -0.07344,-0.0374 -0.05629,0.32936 -0.02322,0.68976 -0.103798,0.81924 -0.05966,0.0959 -0.671142,0.83546 -0.820612,1.1587 z"
         sodipodi:nodetypes="ccczscsczccccsz" />
      <path
         id="path12165"
         style="fill:#ffffff;fill-opacity:1;stroke:none;stroke-width:0.110869;stroke-miterlimit:4;stroke-dasharray:none;stroke-opacity:1"
         d="m 87.873975,111.34156 c 0.08282,0.0258 0.167327,0.0404 0.252092,0.0437 0.0255,8.5e-4 0.05098,7e-4 0.07641,-5e-4 -0.144591,-0.3253 -0.319553,-0.60446 -0.32687,-0.78222 -0.0073,-0.17775 0.16915,-0.80078 0.216315,-1.33301 0.03249,-0.36664 -0.165245,-0.851 -0.165245,-0.851 -0.569203,0.10131 -0.985488,0.70526 -0.986076,1.43061 -5.69e-4,0.70111 0.388013,1.32245 0.933367,1.49243 z m 0.258095,-0.75491 c 0.01552,0.35579 0.234245,0.77638 0.234245,0.77638 0.551043,-0.12183 0.946726,-0.71592 0.947446,-1.42252 5.72e-4,-0.82308 -0.530206,-1.51074 -1.185525,-1.53593 -0.0275,-10e-4 -0.05498,-8.6e-4 -0.08241,4.8e-4 0.101116,0.31848 0.295873,0.62351 0.283693,0.77554 -0.009,0.11259 -0.212957,1.05027 -0.19744,1.40606 z"
         sodipodi:nodetypes="ccczscsczccccsz" />
    </g>
  </g>
</svg>
